<?xml version="1.0" encoding="UTF-8" standalone="no"?>
<svg width="92px" height="92px" viewBox="0 0 92 92" version="1.1" xmlns="http://www.w3.org/2000/svg" xmlns:xlink="http://www.w3.org/1999/xlink">
    <!-- Generator: Sketch 3.8.3 (29802) - http://www.bohemiancoding.com/sketch -->
    <title>answer icon</title>
    <desc>Created with Sketch.</desc>
    <defs></defs>
    <g id="Page-1" stroke="none" stroke-width="1" fill="none" fill-rule="evenodd">
        <g id="Desktop-HD-Copy-12" transform="translate(-674.000000, -2463.000000)">
            <g id="pipeline" transform="translate(27.000000, 1105.000000)">
                <g id="icons" transform="translate(648.000000, 13.000000)">
                    <g id="answer-icon" transform="translate(0.000000, 1346.000000)">
                        <circle id="Oval-111-Copy-3" stroke="#394B59" fill="#F5F5F5" cx="45" cy="45" r="45"></circle>
                        <path d="M62.2244898,61 C63.7346939,61 65,59.7863464 65,58.2490518 L65,31.7509482 C65,30.2541087 63.7755102,29 62.2244898,29 L27.7755102,29 C26.2653061,29 25,30.2136536 25,31.7509482 L25,58.2490518 C25,59.7458913 26.2244898,61 27.7755102,61 L62.2244898,61 L62.2244898,61 Z M27.7755102,30.4563843 L62.2244898,30.4563843 C62.9591837,30.4563843 63.5714286,31.0632111 63.5714286,31.7914033 L63.5714286,36.6864728 L26.4285714,36.6864728 L26.4285714,31.7509482 C26.4285714,31.022756 27.0408163,30.4563843 27.7755102,30.4563843 L27.7755102,30.4563843 Z M26.4285714,58.289507 L26.4285714,38.102402 L63.5714286,38.102402 L63.5714286,58.289507 C63.5714286,59.0176991 62.9591837,59.6245259 62.2244898,59.6245259 L27.7755102,59.6245259 C27.0408163,59.5840708 26.4285714,59.0176991 26.4285714,58.289507 L26.4285714,58.289507 Z M29.0816327,34.05689 C28.9591837,33.9355247 28.877551,33.7332491 28.877551,33.5714286 C28.877551,33.369153 28.9591837,33.2073325 29.0816327,33.0859671 C29.3265306,32.8432364 29.8163265,32.8432364 30.1020408,33.0859671 C30.2244898,33.2073325 30.3061224,33.4096081 30.3061224,33.5714286 C30.3061224,33.7737042 30.2244898,33.9355247 30.1020408,34.05689 C29.9795918,34.1782554 29.7755102,34.2591656 29.6122449,34.2591656 C29.4081633,34.2591656 29.2040816,34.1782554 29.0816327,34.05689 L29.0816327,34.05689 Z M32.9183673,34.05689 C32.7959184,33.9355247 32.7142857,33.7332491 32.7142857,33.5714286 C32.7142857,33.4096081 32.7959184,33.2073325 32.9183673,33.0859671 C33.2040816,32.8432364 33.6530612,32.8432364 33.9387755,33.0859671 C34.0612245,33.2073325 34.1428571,33.4096081 34.1428571,33.5714286 C34.1428571,33.7332491 34.0612245,33.9355247 33.9387755,34.05689 C33.8163265,34.1782554 33.6122449,34.2591656 33.4489796,34.2591656 C33.244898,34.2591656 33.0816327,34.1782554 32.9183673,34.05689 L32.9183673,34.05689 Z M36.7959184,34.05689 C36.6734694,33.9355247 36.5918367,33.7332491 36.5918367,33.5714286 C36.5918367,33.4096081 36.6734694,33.2073325 36.7959184,33.0859671 C37.0408163,32.8432364 37.5306122,32.8432364 37.8163265,33.0859671 C37.9387755,33.2073325 38.0204082,33.4096081 38.0204082,33.5714286 C38.0204082,33.7332491 37.9387755,33.9355247 37.8163265,34.05689 C37.6938776,34.1782554 37.4897959,34.2591656 37.3265306,34.2591656 C37.1632653,34.2591656 36.9183673,34.1782554 36.7959184,34.05689 L36.7959184,34.05689 Z M44.3061224,42.0265487 C44.3061224,41.6219975 44.6326531,41.2983565 45.0408163,41.2983565 L59.4897959,41.2983565 C59.8979592,41.2983565 60.2244898,41.6219975 60.2244898,42.0265487 C60.2244898,42.4310999 59.8979592,42.7547408 59.4897959,42.7547408 L45,42.7547408 C44.5918367,42.7547408 44.3061224,42.4310999 44.3061224,42.0265487 L44.3061224,42.0265487 Z M44.3061224,46.5979772 C44.3061224,46.193426 44.6326531,45.8697851 45.0408163,45.8697851 L51.8979592,45.8697851 C52.3061224,45.8697851 52.6326531,46.193426 52.6326531,46.5979772 C52.6326531,47.0025284 52.3061224,47.3261694 51.8979592,47.3261694 L45,47.3261694 C44.5918367,47.3261694 44.3061224,47.0025284 44.3061224,46.5979772 L44.3061224,46.5979772 Z M44.3061224,51.2098609 C44.3061224,50.8053097 44.6326531,50.4816688 45.0408163,50.4816688 L59.4897959,50.4816688 C59.8979592,50.4816688 60.2244898,50.8053097 60.2244898,51.2098609 C60.2244898,51.6144121 59.8163265,51.897598 59.4489796,51.897598 L45,51.897598 C44.5918367,51.897598 44.3061224,51.573957 44.3061224,51.2098609 L44.3061224,51.2098609 Z M29.8571429,55.7812895 C29.8571429,55.3767383 30.1836735,55.0530973 30.5918367,55.0530973 L59.4489796,55.0530973 C59.8571429,55.0530973 60.1836735,55.3767383 60.1836735,55.7812895 C60.1836735,56.1858407 59.8571429,56.5094817 59.4489796,56.5094817 L30.5510204,56.5094817 C30.1836735,56.4690265 29.8571429,56.1858407 29.8571429,55.7812895 L29.8571429,55.7812895 Z M30.9591837,51.8166877 L40.9591837,51.8166877 C41.3673469,51.8166877 41.6938776,51.4930468 41.6938776,51.0884956 L41.6938776,42.0265487 C41.6938776,41.6219975 41.3673469,41.2983565 40.9591837,41.2983565 L30.9591837,41.2983565 C30.5510204,41.2983565 30.2244898,41.6219975 30.2244898,42.0265487 L30.2244898,51.0884956 C30.2244898,51.4930468 30.5510204,51.8166877 30.9591837,51.8166877 L30.9591837,51.8166877 Z M31.6530612,42.7547408 L40.2244898,42.7547408 L40.2244898,50.4007585 L31.6530612,50.4007585 L31.6530612,42.7547408 L31.6530612,42.7547408 Z" id="Shape" fill="#394B59"></path>
                    </g>
                </g>
            </g>
        </g>
    </g>
</svg>