<?xml version="1.0" encoding="UTF-8" standalone="no"?>
<svg width="26px" height="32px" viewBox="0 0 26 32" version="1.1" xmlns="http://www.w3.org/2000/svg" xmlns:xlink="http://www.w3.org/1999/xlink">
    <!-- Generator: Sketch 3.8.3 (29802) - http://www.bohemiancoding.com/sketch -->
    <title>Group</title>
    <desc>Created with Sketch.</desc>
    <defs></defs>
    <g id="Page-1" stroke="none" stroke-width="1" fill="none" fill-rule="evenodd">
        <g id="Desktop-HD-Copy-12" transform="translate(-1026.000000, -3403.000000)" fill="#FFFFFF">
            <g id="we-grow-with-you" transform="translate(0.000000, 2960.000000)">
                <g id="features" transform="translate(180.000000, 290.000000)">
                    <g id="row1">
                        <g id="Group-17" transform="translate(846.000000, 148.000000)">
                            <g id="Group" transform="translate(0.000000, 5.000000)">
                                <path d="M22.8571429,20.0285714 L22.8571429,0 L0,0 L0,29.7142857 L13.1428571,29.7142857 L13.1428571,29.68 C14.4,31.1028571 16.24,32 18.2857143,32 C22.0742857,32 25.1428571,28.9314286 25.1428571,25.1428571 C25.1428571,23.1085714 24.2628571,21.2857143 22.8571429,20.0285714 L22.8571429,20.0285714 Z M4.57142857,19.4285714 L4.57142857,21.7142857 L12.3525714,21.7142857 C11.7685714,22.724 11.4285714,23.8925714 11.4285714,25.1428571 C11.4285714,25.9428571 11.5657143,26.7142857 11.8222857,27.4285714 L2.28571429,27.4285714 L2.28571429,2.28571429 L20.5714286,2.28571429 L20.5714286,18.68 C19.8571429,18.4228571 19.0857143,18.2857143 18.2857143,18.2857143 C16.8891429,18.2857143 15.5971429,18.7114286 14.5137143,19.4285714 L4.57142857,19.4285714 L4.57142857,19.4285714 Z M18.2857143,29.7142857 C15.7657143,29.7142857 13.7142857,27.6628571 13.7142857,25.1428571 C13.7142857,22.6228571 15.7657143,20.5714286 18.2857143,20.5714286 C20.8057143,20.5714286 22.8571429,22.6228571 22.8571429,25.1428571 C22.8571429,27.6628571 20.8057143,29.7142857 18.2857143,29.7142857 L18.2857143,29.7142857 Z" id="Shape"></path>
                                <rect id="Rectangle-path" x="4.57142857" y="14.8571429" width="13.7142857" height="2.28571429"></rect>
                                <rect id="Rectangle-path" x="4.57142857" y="10.2857143" width="13.7142857" height="2.28571429"></rect>
                                <rect id="Rectangle-path" x="4.57142857" y="5.71428571" width="13.7142857" height="2.28571429"></rect>
                                <polygon id="Shape" points="18.8571429 22.2857143 17.7142857 22.2857143 17.7142857 25.1428571 17.7142857 26.2857143 18.8571429 26.2857143 19.9868571 26.2857143 19.9868571 25.1428571 18.8571429 25.1428571"></polygon>
                            </g>
                        </g>
                    </g>
                </g>
            </g>
        </g>
    </g>
</svg>