<?xml version="1.0" encoding="UTF-8" standalone="no"?>
<svg width="29px" height="33px" viewBox="0 0 29 33" version="1.1" xmlns="http://www.w3.org/2000/svg" xmlns:xlink="http://www.w3.org/1999/xlink">
    <!-- Generator: Sketch 3.8.3 (29802) - http://www.bohemiancoding.com/sketch -->
    <title>Shape</title>
    <desc>Created with Sketch.</desc>
    <defs></defs>
    <g id="Page-1" stroke="none" stroke-width="1" fill="none" fill-rule="evenodd">
        <g id="Desktop-HD-Copy-12" transform="translate(-1022.000000, -3252.000000)" fill="#FFFFFF">
            <g id="we-grow-with-you" transform="translate(0.000000, 2960.000000)">
                <g id="features" transform="translate(180.000000, 290.000000)">
                    <g id="row1">
                        <g id="Group-13" transform="translate(842.000000, 0.000000)">
                            <path d="M28.7095678,11.0897498 C28.6401208,10.8753697 28.5514248,10.6655188 28.4487639,10.4605744 C28.0788828,9.71854765 27.5157577,9.05993282 26.8533686,8.6772191 L16.5072655,2.70401661 C15.379883,2.0533278 13.5270806,2.0533278 12.3996981,2.70401661 L2.05359502,8.6772191 C1.39120589,9.05993282 0.82808077,9.71854765 0.45819966,10.4605744 C0.355538781,10.6658962 0.266842801,10.8753697 0.197395735,11.0897498 C0.0735987922,11.4705763 0,11.8589515 0,12.2344941 L0,24.1812765 C0,25.5332297 0.882808077,27.0621974 2.05359502,27.738174 L12.3996981,33.7113765 C12.9632006,34.0367209 13.6927722,34.216 14.4532931,34.216 C15.2138139,34.216 15.9433855,34.0367209 16.5068881,33.7113765 L26.8529911,27.738174 C28.0237781,27.06182 28.9065861,25.5328522 28.9065861,24.1812765 L28.9065861,12.2341166 C28.907341,11.8585741 28.8333648,11.4705763 28.7095678,11.0897498 L28.7095678,11.0897498 Z M13.4346103,4.49643027 C13.6810719,4.35413927 14.0622759,4.26884016 14.4536705,4.26884016 C14.8450651,4.26884016 15.2258917,4.35413927 15.4727307,4.49643027 L25.8029817,10.460197 L15.4727307,16.4243412 C14.9488583,16.7270398 13.9584827,16.7270398 13.4349877,16.4243412 L3.10435931,10.460197 L13.4346103,4.49643027 L13.4346103,4.49643027 Z M26.8378939,24.1812765 C26.8378939,24.7859189 26.3427062,25.6438166 25.8188337,25.9457603 L15.4727307,31.9189628 C14.9794301,32.2035448 13.9279109,32.2035448 13.4349877,31.9189628 L3.08850727,25.9457603 C2.56463484,25.6434391 2.06944707,24.7855414 2.06944707,24.1812765 L2.06944707,21.6215482 L12.6956029,27.7559132 C13.1885261,28.0404952 13.8207209,28.1827862 14.4536705,28.1827862 C15.0866201,28.1827862 15.7188149,28.0404952 16.2117381,27.7559132 L26.8378939,21.6215482 L26.8378939,24.1812765 L26.8378939,24.1812765 Z M26.8378939,20.597204 C26.7458011,20.6504216 26.6499339,20.7055263 26.5480279,20.7644054 L15.7682582,26.9878437 C15.0564257,27.3988647 13.852425,27.3996196 13.1390828,26.9878437 L2.35931308,20.7644054 C2.25740706,20.7055263 2.16191734,20.6504216 2.06944707,20.597204 L2.06944707,16.9825597 L12.6956029,23.1173021 C13.1885261,23.4018841 13.8207209,23.5441751 14.4536705,23.5441751 C15.0866201,23.5441751 15.7188149,23.4018841 16.2117381,23.1173021 L26.8378939,16.9825597 L26.8378939,20.597204 L26.8378939,20.597204 Z M26.8378939,15.9589704 L15.7682582,22.3496101 C15.0564257,22.7606311 13.852425,22.7613859 13.1390828,22.3496101 L2.35931308,16.1257943 C2.25740706,16.0669153 2.16191734,16.0118105 2.06944707,15.9585929 L2.06944707,12.2529881 L12.3996981,18.2167549 C12.9850915,18.5549319 13.7191923,18.723643 14.4532931,18.723643 C15.1870164,18.723643 15.9218721,18.5545544 16.5068881,18.2167549 L26.8371391,12.2529881 L26.8371391,15.9589704 L26.8378939,15.9589704 Z" id="Shape"></path>
                        </g>
                    </g>
                </g>
            </g>
        </g>
    </g>
</svg>