<?xml version="1.0" encoding="UTF-8" standalone="no"?>
<svg width="92px" height="92px" viewBox="0 0 92 92" version="1.1" xmlns="http://www.w3.org/2000/svg" xmlns:xlink="http://www.w3.org/1999/xlink">
    <!-- Generator: Sketch 3.8.3 (29802) - http://www.bohemiancoding.com/sketch -->
    <title>infra icon</title>
    <desc>Created with Sketch.</desc>
    <defs></defs>
    <g id="Page-1" stroke="none" stroke-width="1" fill="none" fill-rule="evenodd">
        <g id="Desktop-HD-Copy-12" transform="translate(-674.000000, -2014.000000)">
            <g id="pipeline" transform="translate(27.000000, 1105.000000)">
                <g id="icons" transform="translate(648.000000, 13.000000)">
                    <g id="infra-icon" transform="translate(0.000000, 897.000000)">
                        <circle id="Oval-111-Copy-2" stroke="#394B59" fill="#F5F5F5" cx="45" cy="45" r="45"></circle>
                        <path d="M45.5,30 C43.8941667,30 42.2883333,30.232319 41.035,30.7743965 L24.115,37.6278057 C23.4485139,37.8988445 22.9791667,38.2086031 22.5875,38.5570815 C22.235,38.9055599 22,39.3701978 22,39.8348357 C22,40.3381935 22.235,40.7641116 22.5875,41.1513098 C22.9791667,41.4997883 23.4485139,41.8095469 24.115,42.0805856 L26.2293472,42.9324218 L24.115,43.784258 C23.4485139,44.0552968 22.9791667,44.3263355 22.5875,44.7135338 C22.235,45.0620122 22,45.5266501 22,45.991288 C22,46.4559259 22.235,46.9199185 22.5875,47.268397 C22.9791667,47.6555952 23.4485139,47.9653538 24.115,48.1970274 L26.2293472,49.0882288 L24.115,49.9394196 C23.4485139,50.1717386 22.9791667,50.4814972 22.5875,50.8686954 C22.235,51.2171739 22,51.6818118 22,52.1458043 C22,52.6110876 22.235,53.0750802 22.5875,53.4235586 C22.9791667,53.8107569 23.4485139,54.0817956 24.115,54.3521891 L41.035,61.2449634 C43.5801806,62.2516789 47.4185139,62.2516789 49.965,61.2449634 L66.885,54.3521891 C67.5508333,54.0811503 68.0208333,53.8101115 68.4125,53.4235586 C68.765,53.0750802 69,52.6104423 69,52.1458043 C69,51.6811664 68.765,51.2171739 68.4125,50.8686954 C68.0208333,50.4808518 67.5508333,50.1717386 66.885,49.9394196 L64.77,49.0882288 L66.885,48.1970274 C67.5508333,47.9653538 68.0208333,47.6549499 68.4125,47.268397 C68.765,46.9199185 69,46.4559259 69,45.991288 C69,45.5266501 68.765,45.0620122 68.4125,44.7135338 C68.0208333,44.3263355 67.5508333,44.0552968 66.885,43.784258 L64.77,42.9324218 L66.885,42.0805856 C67.5508333,41.8095469 68.0208333,41.4997883 68.4125,41.1513098 C68.765,40.7641116 69,40.3381935 69,39.8348357 C69,39.3701978 68.765,38.9055599 68.4125,38.5570815 C68.0208333,38.2086031 67.5508333,37.8988445 66.885,37.6278057 L49.965,30.7743965 C48.7116667,30.232319 47.1058333,30 45.5,30 L45.5,30 L45.5,30 Z M45.5,31.0454353 C46.9876806,31.0454353 48.4766667,31.2777543 49.5726806,31.7036723 L66.4933333,38.5958013 C67.0416667,38.7894004 67.4326806,39.0604392 67.6683333,39.2927582 C67.9026806,39.5250771 67.9425,39.6799564 67.9425,39.8348357 C67.9425,39.989715 67.9026806,40.1833142 67.6683333,40.4156331 C67.4333333,40.6479521 67.0416667,40.880271 66.4933333,41.11259 L49.5726806,47.9659992 C47.38,48.8565551 43.62,48.8565551 41.4266667,47.9659992 L24.5066667,41.11259 C23.9583333,40.880271 23.5673194,40.6479521 23.3316667,40.4156331 C23.0960139,40.1833142 23.0575,39.989715 23.0575,39.8348357 C23.0575,39.6799564 23.0966667,39.5250771 23.3316667,39.2927582 C23.5666667,39.0604392 23.9583333,38.7894004 24.5066667,38.5958013 L41.4266667,31.7036723 C42.5226806,31.2777543 44.0116667,31.0454353 45.5,31.0454353 L45.5,31.0454353 L45.5,31.0454353 Z M27.6008333,49.6309517 L41.035,55.0904471 C43.5801806,56.1358824 47.4185139,56.1358824 49.965,55.0904471 L63.3991667,49.6309517 L66.4933333,50.8699861 C67.0416667,51.1016597 67.4326806,51.334624 67.6683333,51.5669429 C67.9026806,51.7986166 67.9425,51.992861 67.9425,52.147095 C67.9425,52.3019743 67.9026806,52.4955734 67.6683333,52.6891726 C67.4333333,52.9214915 67.0416667,53.1925303 66.4933333,53.4254946 L49.5726806,60.2789037 C47.38,61.1694597 43.62,61.1694597 41.4266667,60.2789037 L24.5066667,53.4254946 C23.9583333,53.1931756 23.5673194,52.9221369 23.3316667,52.6891726 C23.0966667,52.4955734 23.0575,52.3019743 23.0575,52.147095 C23.0575,51.992861 23.0966667,51.7986166 23.3316667,51.5669429 C23.5666667,51.334624 23.9583333,51.1016597 24.5066667,50.8699861 L27.6008333,49.6309517 L27.6008333,49.6309517 L27.6008333,49.6309517 Z" id="Shape" fill="#394B59"></path>
                    </g>
                </g>
            </g>
        </g>
    </g>
</svg>