<?xml version="1.0" encoding="UTF-8" standalone="no"?>
<svg width="36px" height="32px" viewBox="0 0 36 32" version="1.1" xmlns="http://www.w3.org/2000/svg" xmlns:xlink="http://www.w3.org/1999/xlink">
    <!-- Generator: Sketch 3.8.3 (29802) - http://www.bohemiancoding.com/sketch -->
    <title>Shape</title>
    <desc>Created with Sketch.</desc>
    <defs></defs>
    <g id="Page-1" stroke="none" stroke-width="1" fill="none" fill-rule="evenodd">
        <g id="Desktop-HD-Copy-12" transform="translate(-180.000000, -3254.000000)" fill="#FFFFFF">
            <g id="we-grow-with-you" transform="translate(0.000000, 2960.000000)">
                <g id="features" transform="translate(180.000000, 290.000000)">
                    <g id="row1">
                        <g id="Group-16">
                            <path d="M30.7768187,26.4907522 C29.5930949,26.4907522 28.4882861,26.9247842 27.6596794,27.674476 L24.5030826,25.9383477 L24.5030826,25.9383477 C24.7398274,25.2281134 24.8581998,24.5178792 24.8581998,23.72873 C24.8581998,20.3353884 22.4907522,17.5339088 19.3341554,16.8236745 L19.3341554,13.1935882 C21.188656,12.5622688 22.4907522,10.7866831 22.4907522,8.73489519 C22.4907522,6.13070284 20.3600493,4 17.755857,4 C15.1516646,4 13.0209618,6.13070284 13.0209618,8.73489519 C13.0209618,10.7866831 14.323058,12.5622688 16.1775586,13.1935882 L16.1775586,16.8236745 C13.0209618,17.5339088 10.6535142,20.3748459 10.6535142,23.72873 C10.6535142,24.4389642 10.7718866,25.1491985 10.9691739,25.8199753 L10.9691739,25.8199753 L7.81257707,27.6350185 C6.98397041,26.9247842 5.91861899,26.4907522 4.73489519,26.4907522 C2.13070284,26.4907522 0,28.621455 0,31.2256473 C0,33.8298397 2.13070284,35.9605425 4.73489519,35.9605425 C7.33908755,35.9605425 9.46979038,33.8298397 9.46979038,31.2256473 C9.46979038,30.9494451 9.43033292,30.6337855 9.39087546,30.3575832 L12.5474723,28.5425401 C13.8495684,29.9630086 15.7040691,30.8310727 17.755857,30.8310727 C19.7681874,30.8310727 21.5832306,30.0024661 22.8853268,28.6609125 L26.1208385,30.4759556 C26.081381,30.7127004 26.0419236,30.9889026 26.0419236,31.2651048 C26.0419236,33.8692972 28.1726264,36 30.7768187,36 C33.3810111,36 35.5117139,33.8692972 35.5117139,31.2651048 C35.5117139,28.621455 33.3810111,26.4907522 30.7768187,26.4907522 L30.7768187,26.4907522 Z M4.73489519,33.1985203 C3.63008631,33.1985203 2.76202219,32.3304562 2.76202219,31.2256473 C2.76202219,30.1208385 3.63008631,29.2527744 4.73489519,29.2527744 C5.83970407,29.2527744 6.70776819,30.1208385 6.70776819,31.2256473 C6.70776819,32.3304562 5.83970407,33.1985203 4.73489519,33.1985203 L4.73489519,33.1985203 Z M17.755857,6.76202219 C18.8606658,6.76202219 19.72873,7.63008631 19.72873,8.73489519 C19.72873,9.83970407 18.8606658,10.7077682 17.755857,10.7077682 C16.6510481,10.7077682 15.782984,9.83970407 15.782984,8.73489519 C15.782984,7.63008631 16.6510481,6.76202219 17.755857,6.76202219 L17.755857,6.76202219 Z M17.755857,28.0295931 C15.3884094,28.0295931 13.4549938,26.0961776 13.4549938,23.72873 C13.4549938,21.3612824 15.3884094,19.4278668 17.755857,19.4278668 C20.1233046,19.4278668 22.0567201,21.3612824 22.0567201,23.72873 C22.0567201,26.0961776 20.1233046,28.0295931 17.755857,28.0295931 L17.755857,28.0295931 Z M30.7768187,33.1985203 C29.6720099,33.1985203 28.8039457,32.3304562 28.8039457,31.2256473 C28.8039457,30.1208385 29.6720099,29.2527744 30.7768187,29.2527744 C31.8816276,29.2527744 32.7496917,30.1208385 32.7496917,31.2256473 C32.7496917,32.3304562 31.8816276,33.1985203 30.7768187,33.1985203 L30.7768187,33.1985203 Z" id="Shape"></path>
                        </g>
                    </g>
                </g>
            </g>
        </g>
    </g>
</svg>