<?xml version="1.0" encoding="UTF-8" standalone="no"?>
<svg width="34px" height="34px" viewBox="0 0 34 34" version="1.1" xmlns="http://www.w3.org/2000/svg" xmlns:xlink="http://www.w3.org/1999/xlink">
    <!-- Generator: Sketch 3.8.3 (29802) - http://www.bohemiancoding.com/sketch -->
    <title>Shape</title>
    <desc>Created with Sketch.</desc>
    <defs></defs>
    <g id="Page-1" stroke="none" stroke-width="1" fill="none" fill-rule="evenodd" opacity="0.85">
        <g id="Desktop-HD-Copy-12" transform="translate(-32.000000, -18.000000)" fill="#FFFFFF">
            <g id="nav" transform="translate(0.000000, -1.000000)">
                <g id="Group" transform="translate(27.000000, 19.000000)">
                    <g id="logo">
                        <g id="Shape">
                            <path d="M22,3.09097778 L22.0166222,3.09173333 L22.0166222,1.4144 L22.1915333,0.0124666667 L22,0 C20.8900889,0 19.7813111,0.108044444 18.7038889,0.319977778 L19.3015333,3.35202222 C20.1821333,3.17937778 21.0899333,3.09097778 22,3.09097778 L22,3.09097778 Z M8.09097778,17 L8.09097778,16.9667556 L5,17 C5,18.1016 5.10653333,19.2066 5.3162,20.2779778 L8.34975556,19.6852444 C8.17786667,18.8080444 8.09097778,17.9040222 8.09097778,17 L8.09097778,17 Z M16.6944889,4.13855556 L15.5143111,1.28142222 C14.4894,1.70491111 13.5007556,2.23228889 12.5740667,2.85033333 L14.2899333,5.42224444 C15.0477556,4.91564444 15.8565778,4.48384444 16.6944889,4.13855556 L16.6944889,4.13855556 Z M9.15517778,11.6536889 L6.30257778,10.4644444 C5.8738,11.4912444 5.54702222,12.5645111 5.33055556,13.6525111 L8.36108889,14.2562 C8.53826667,13.3680444 8.80535556,12.4927333 9.15517778,11.6536889 L9.15517778,11.6536889 Z M12.1800444,7.14906667 L9.99762222,4.96097778 C9.20995556,5.74562222 8.49746667,6.61035556 7.88017778,7.52948889 L10.4460444,9.25291111 C10.9515111,8.50075556 11.5348,7.7928 12.1800444,7.14906667 L12.1800444,7.14906667 Z M35.9090222,17 L35.9090222,17.0664889 L39,17 C39,15.8863111 38.8912,14.773 38.6773778,13.6872667 L35.6453333,14.2864222 C35.8198667,15.1738222 35.9090222,16.0884222 35.9090222,17 L35.9090222,17 Z M34.0269333,4.98591111 C33.2407778,4.199 32.3745333,3.48726667 31.4554,2.87073333 L29.7346222,5.43773333 C30.4871556,5.94244444 31.197,6.52497778 31.8396,7.16946667 L34.0269333,4.98591111 L34.0269333,4.98591111 Z M28.5200667,1.29502222 C27.4936444,0.868888889 26.4203778,0.542488889 25.3301111,0.326022222 L24.7286889,3.35806667 C25.6191111,3.53448889 26.4959333,3.80082222 27.3338444,4.14875556 L28.5200667,1.29502222 L28.5200667,1.29502222 Z M34.8554,11.6805111 L37.7110222,10.4973111 C37.2890444,9.47466667 36.7597778,8.48602222 36.1417333,7.55971111 L33.5698222,9.27708889 C34.0768,10.0356667 34.5101111,10.8437333 34.8554,11.6805111 L34.8554,11.6805111 Z M9.13213333,22.2930444 L6.27537778,23.4702 C6.69886667,24.4981333 7.22548889,25.4879111 7.84126667,26.4115778 L10.4131778,24.6972222 C9.91035556,23.9424222 9.47931111,23.1328444 9.13213333,22.2930444 L9.13213333,22.2930444 Z M22.0732889,30.9105333 L21.9508889,30.9090222 L22,34 C23.0970667,34 24.1937556,33.8946 25.2598444,33.6875778 L24.6697556,30.6540222 C23.7982222,30.8232667 22.8994889,30.9090222 22.0732889,30.9105333 L22.0732889,30.9105333 Z M27.2809556,29.8720222 L28.4535778,32.7321778 C29.48,32.3109556 30.4697778,31.7839556 31.3964667,31.1678 L29.6885333,28.5936222 C28.9288222,29.0975778 28.1181111,29.5297556 27.2809556,29.8720222 L27.2809556,29.8720222 Z M34.8334889,22.3731333 L37.6845778,23.5684222 C38.1133556,22.5450222 38.4416444,21.4732667 38.6622667,20.3837556 L35.6321111,19.771 C35.4530444,20.6610444 35.1844444,21.5367333 34.8334889,22.3731333 L34.8334889,22.3731333 Z M31.7980444,26.8705778 L33.9778222,29.0654667 C34.7673778,28.2804444 35.481,27.4172222 36.0998,26.4992222 L33.5373333,24.7731556 C33.0292222,25.5234222 32.4448,26.2306222 31.7980444,26.8705778 L31.7980444,26.8705778 Z M9.94813333,28.9891556 C10.7331556,29.7787111 11.5971333,30.4923333 12.5158889,31.1111333 L14.2408222,28.5448889 C13.4894222,28.0394222 12.7822222,27.4553778 12.1392444,26.8093778 L9.94813333,28.9891556 L9.94813333,28.9891556 Z M15.4478222,32.6913778 C16.4738667,33.1201556 17.5463778,33.4476889 18.6355111,33.6664222 L19.2437333,30.6362667 C18.3540667,30.4579556 17.478,30.1889778 16.6400889,29.8395333 L15.4478222,32.6913778 L15.4478222,32.6913778 Z M14.7156889,8.95295556 C13.9695778,9.7002 13.5936889,10.0326444 12.7516222,10.0417111 C12.0958,10.9117333 11.5608667,11.8739333 11.1691111,12.9082889 C11.6228222,13.0480667 12.1313111,13.1364667 12.7206444,13.1364667 C14.9053333,13.1364667 16.0598222,11.9816 16.9026444,11.1380222 C17.6593333,10.3805778 18.0299333,10.0451111 18.8969333,10.0451111 C19.7646889,10.0451111 20.1360444,10.3802 20.8931111,11.1380222 C21.7366889,11.9816 22.8908,13.1364667 25.0762444,13.1364667 C27.2632,13.1364667 28.4180667,11.9816 29.2627778,11.1395333 C30.0156889,10.3847333 30.3912,10.0507778 31.2521556,10.0466222 C30.5460889,9.1086 29.7032667,8.28164444 28.7501333,7.59484444 C28.0436889,7.99566667 27.5148,8.51397778 27.0773333,8.95144444 C26.3187556,9.71002222 25.9474,10.0451111 25.0762444,10.0451111 C24.2084889,10.0451111 23.8375111,9.71002222 23.0804444,8.95257778 C22.2368667,8.10975556 21.0823778,6.95413333 18.8976889,6.95413333 C16.7122444,6.95451111 15.5585111,8.10975556 14.7156889,8.95295556 L14.7156889,8.95295556 Z M31.2634889,13.9090222 C29.0780444,13.9090222 27.9216667,15.0635111 27.0769556,15.9070889 C26.3187556,16.6649111 25.9466444,17 25.0762444,17 C24.2084889,17 23.8375111,16.6649111 23.0804444,15.9070889 C22.2368667,15.0642667 21.0823778,13.9090222 18.8976889,13.9090222 C16.713,13.9090222 15.5592667,15.0642667 14.7164444,15.9070889 C13.9586222,16.6649111 13.5876444,17 12.7206444,17 C11.8536444,17 11.4822889,16.6649111 10.7256,15.9070889 C10.6508,15.8315333 10.5707111,15.7533333 10.4906222,15.6747556 C10.4407556,16.1110889 10.4094,16.5515778 10.4094,17 C10.4094,17.9357556 10.5321778,18.8382667 10.7429778,19.7105556 C11.2937778,19.9398667 11.9390222,20.0909778 12.7206444,20.0909778 C14.9053333,20.0909778 16.0598222,18.9349778 16.9026444,18.0929111 C17.6593333,17.3350889 18.0299333,17 18.8969333,17 C19.7646889,17 20.1360444,17.3350889 20.8931111,18.0929111 C21.7366889,18.9349778 22.8908,20.0909778 25.0762444,20.0909778 C27.2632,20.0909778 28.4180667,18.9364889 29.2627778,18.0944222 C30.0198444,17.3350889 30.3946,17 31.2634889,17 C32.1361556,17 32.5067556,17.3350889 33.2679778,18.0940444 C33.3427778,18.1707333 33.4262667,18.2504444 33.5078667,18.3309111 C33.5577333,17.8934444 33.5909778,17.4506889 33.5909778,17 C33.5909778,16.0672667 33.4678222,15.1647556 33.2589111,14.2939778 C32.7050889,14.0624 32.0545556,13.9090222 31.2634889,13.9090222 L31.2634889,13.9090222 Z M29.2627778,25.0474222 C30.0156889,24.2945111 30.3912,23.9605556 31.2491333,23.9560222 C31.9038222,23.0882667 32.438,22.1283333 32.8308889,21.0962444 C32.3737778,20.9542 31.8611333,20.8642889 31.2646222,20.8642889 C29.0791778,20.8642889 27.9228,22.0187778 27.0780889,22.8623556 C26.3195111,23.6201778 25.9477778,23.9552667 25.0762444,23.9552667 C24.2084889,23.9552667 23.8375111,23.6201778 23.0804444,22.8623556 C22.2372444,22.0187778 21.0827556,20.8642889 18.8980667,20.8642889 C16.7133778,20.8642889 15.5596444,22.0187778 14.7168222,22.8623556 C13.9692,23.6103556 13.5940667,23.9439333 12.7482222,23.9522444 C13.4531556,24.888 14.2937111,25.7134444 15.2445778,26.3998667 C15.9453556,25.9986667 16.4685778,25.4822444 16.9041556,25.0478 C17.6608444,24.2899778 18.0314444,23.9548889 18.8984444,23.9548889 C19.7662,23.9548889 20.1375556,24.2899778 20.8946222,25.0478 C21.7382,25.8898667 22.8923111,27.0458667 25.077,27.0458667 C27.2632,27.0454889 28.4169333,25.891 29.2627778,25.0474222 L29.2627778,25.0474222 Z"></path>
                        </g>
                    </g>
                </g>
            </g>
        </g>
    </g>
</svg>