<svg xmlns="http://www.w3.org/2000/svg" width="456" height="336"><g class="animated vpc-svg fade-in-33" data-vp-add-class="fade-in-33"><path d="M255.742 68.974V54.45c0-5.096-2.707-7.58-2.707-7.58s3.98-7.15-2.158-11.82c-2.035-1.55-4.48-2.23-5.382-2.653-.675-2.054-1.837-3.538-4.115-3.538-2.395 0-5.422.71-5.422-.36a5.14 5.14 0 0 0-9.79-2.194c-.82-.19-1.684-.322-2.596-.386a5.14 5.14 0 0 0-10.22.777c0 .43.057.842.156 1.24-.852.425-1.662.922-2.42 1.48a5.142 5.142 0 0 0-8.07 4.224c0 1.46.61 2.776 1.587 3.71a5.248 5.248 0 0 0-4.033 5.104c0 1.107.343 2.132.928 2.978-1.188 2.378-1.39 5.55-1.39 9.608v14.28" stroke="#1f7edd" stroke-width="1.713" stroke-linejoin="round" stroke-miterlimit="2" fill-rule="evenodd" fill="#fff"></path><path d="M253.035 68.39a6.95 6.95 0 0 1 0 13.898m-50.22 0a6.95 6.95 0 0 1 0-13.898" stroke="#1f7edd" stroke-width="1.713" stroke-miterlimit="2" fill-rule="evenodd" fill="#fff"></path><path d="M220.685 106.903v5.048c-17.87 0-19.47 16.34-19.47 25.897v15.828h53.625v-15.828c0-9.72-1.805-26.036-19.874-26.036v-4.906" stroke="#1f7edd" stroke-width="1.713" stroke-linejoin="round" stroke-miterlimit="2" fill-rule="evenodd" fill="#fff"></path><path d="M238.014 112.372c0 5.124-4.154 10.045-9.276 10.045h-1.912c-5.124 0-9.278-4.92-9.278-10.045m-7.644 23.858v17.444M246.4 136.23v17.444" stroke="#1f7edd" stroke-width="1.713" stroke-linejoin="round" stroke-miterlimit="2" fill="none"></path><path d="M253.035 52.303V85.91c0 12.613-10.226 21.576-22.84 21.576h-4.337c-12.615 0-22.84-8.963-22.84-21.576l.012-34.38" stroke="#1f7edd" stroke-width="1.713" stroke-linejoin="round" stroke-miterlimit="2" fill-rule="evenodd" fill="#fff"></path><path d="M242.993 75.34a2.63 2.63 0 1 1-5.26 0 2.63 2.63 0 0 1 5.26 0zm-24.403 0a2.63 2.63 0 1 1-5.26-.002 2.63 2.63 0 0 1 5.26 0z" fill-rule="evenodd" fill="#1f7edd"></path><path d="M213.35 67.807h5.94m17.687 0h5.938" stroke="#1f7edd" stroke-width="1.713" stroke-miterlimit="2" stroke-linecap="round" fill="none"></path><path d="M223.636 93.538a8.43 8.43 0 0 0 4.39 1.227c1.608 0 3.11-.45 4.39-1.227" stroke="#1f7edd" stroke-width="1.713" stroke-linejoin="round" stroke-miterlimit="2" stroke-linecap="round" fill="none"></path><path d="M229.51 87.01a3.837 3.837 0 0 1 0-7.674m-26.48-27.262c0 2.846 2.365 5.728 5.15 5.15 5.15-1.066 4.218-6.675 4.218-9.52m0 0a5.15 5.15 0 0 0 10.3 0m.002 0c0 2.845 2.482 6.374 5.325 6.374a5.15 5.15 0 0 0 5.152-5.15" stroke="#1f7edd" stroke-width="1.713" stroke-linejoin="round" stroke-miterlimit="2" fill="none"></path><path d="M233.176 48.928c0 2.844 3.837 7.75 9.067 8.37 6.524.774 10.79-2.38 10.79-5.223m-43.13 90.573h-8.46m54.247-.825h-8.46m-15.15-11.535h9.3v8.96l-4.902.766-4.4-.767v-8.96z" stroke="#1f7edd" stroke-width="1.713" stroke-linejoin="round" stroke-miterlimit="2" fill="none"></path></g><g class="animated vpc-svg fade-in-66" data-vp-add-class="fade-in-66"><path d="M303.94 82.438a14.415 14.415 0 0 1-3.485-9.42c0-7.993 6.48-14.472 14.47-14.472 7.993 0 14.472 6.48 14.472 14.47 0 3.6-1.313 6.89-3.488 9.423" stroke="#1f7edd" stroke-width="2.088" stroke-linejoin="round" stroke-miterlimit="2" fill-rule="evenodd" fill="#fff"></path><path d="M281.093 127.074c-3.532-37.106 16.7-46.006 33.833-46.006 17.134 0 37.25 8.9 33.834 46.006m-64.34 16.356a8.473 8.473 0 0 1 0-16.944" stroke="#1f7edd" stroke-width="2.088" stroke-linejoin="round" stroke-miterlimit="2" fill-rule="evenodd" fill="#fff"></path><path d="M281.768 137.68a1.008 1.008 0 1 1-2.015 0 1.008 1.008 0 0 1 2.015 0z" fill-rule="evenodd" fill="#1f7edd"></path><path d="M306.064 172.207v8.9c-9.575 3.446-23.487 10.44-23.487 21.968v19.09h64.682v-19.09c0-11.724-14.39-18.757-23.97-22.142v-8.726" stroke="#1f7edd" stroke-width="2.088" stroke-linejoin="round" stroke-miterlimit="2" fill-rule="evenodd" fill="#fff"></path><path d="M335.12 186.328c0 10.264-8.32 16.71-18.582 16.71h-3.83c-10.262 0-18.582-6.446-18.582-16.71m42.956 23.082v12.757" stroke="#1f7edd" stroke-width="2.066" stroke-linejoin="round" stroke-miterlimit="2" fill="none"></path><path d="M345.084 124.08v16.35c0 15.215-15.79 34.353-30.332 34.353-14.814 0-30-19.138-30-34.352 0 0 .016-10.072.016-19.75 0-12.012 12.216-16.955 28.58-16.955 18.38 0 31.766 5.78 31.736 20.357z" stroke="#1f7edd" stroke-width="2.088" stroke-linejoin="round" stroke-miterlimit="2" fill-rule="evenodd" fill="#fff"></path><path d="M330.69 136.945a2.33 2.33 0 1 1-4.66 0 2.33 2.33 0 0 1 4.66 0zm-26.554 0a2.33 2.33 0 1 1-4.66-.002 2.33 2.33 0 0 1 4.66.002z" fill-rule="evenodd" fill="#1f7edd"></path><path d="M297.217 124.114h7.164m21.334 0h7.164" stroke="#1f7edd" stroke-width="2.066" stroke-miterlimit="2" stroke-linecap="round" fill="none"></path><path d="M309.623 160.634a10.16 10.16 0 0 0 5.295 1.48c1.94 0 3.752-.54 5.295-1.48" stroke="#1f7edd" stroke-width="2.066" stroke-linejoin="round" stroke-miterlimit="2" stroke-linecap="round" fill="none"></path><path d="M293.06 209.41v12.757" stroke="#1f7edd" stroke-width="2.066" stroke-linejoin="round" stroke-miterlimit="2" fill="none"></path><path d="M318.386 149.58a3.515 3.515 0 0 1-7.03 0" stroke="#1f7edd" stroke-width="2.066" stroke-linejoin="round" stroke-miterlimit="2" stroke-linecap="round" fill="none"></path><path d="M338.08 136.743h7.004m-33.664 0h7.012m-33.664 1.872h7.003m20.554-1.405c0 3.713-5.32 6.725-10.73 6.725-5.406 0-10.728-3.012-10.728-6.725 0-3.714 5.322-6.725 10.73-6.725s10.728 3.01 10.728 6.725zm26.66-.453c0 3.714-5.32 6.726-10.727 6.726-5.408 0-10.73-3.012-10.73-6.726 0-3.713 5.322-6.724 10.73-6.724s10.728 3.01 10.728 6.724z" stroke="#1f7edd" stroke-width="2.066" stroke-linejoin="round" stroke-miterlimit="2" fill="none"></path><path d="M345.647 126.486a8.473 8.473 0 0 1 0 16.945" stroke="#1f7edd" stroke-width="2.088" stroke-linejoin="round" stroke-miterlimit="2" fill-rule="evenodd" fill="#fff"></path><path d="M305.638 93.018l1.873 10.176m7.113-13.922v13.922m8.985-10.176l-1.873 10.176" stroke="#1f7edd" stroke-width="2.088" stroke-miterlimit="2" stroke-linecap="round" fill="none"></path><path d="M350.122 137.68a1.008 1.008 0 1 1-2.015 0 1.008 1.008 0 0 1 2.015 0z" fill-rule="evenodd" fill="#1f7edd"></path></g><path d="M435.043 194.9v-20.19c0-7.082-4.673-15.137-12.84-21.685-9.52-7.636-14.764-8.178-14.764-8.178-11.308-8.065-14.708 1.267-26.05 2.31-9.93.914-16.81-4.79-16.81 6.752 0 .19.01 1.192.02 1.382l-.02-.806s-9.01 6.447-9.01 21.04v19.855" stroke="#1f7edd" stroke-width="2.381" stroke-linejoin="round" stroke-miterlimit="2" fill-rule="evenodd" fill="#fff"></path><path d="M430.213 194.088c5.335 0 9.66 4.325 9.66 9.66 0 5.334-4.325 9.66-9.66 9.66m-69.81 0c-5.336 0-9.66-4.325-9.66-9.66s4.324-9.66 9.66-9.66m24.84 53.538v7.018c-11.037 3.974-27.068 12.034-27.068 25.32v22.002h74.545v-22.002c0-13.512-16.582-21.618-27.626-25.518v-6.82" stroke="#1f7edd" stroke-width="2.381" stroke-linejoin="round" stroke-miterlimit="2" fill-rule="evenodd" fill="#fff"></path><path d="M430.213 178.13v29.635c0 17.536-14.216 40.67-31.75 40.67h-6.03c-17.536 0-31.75-23.134-31.75-40.67l.016-37.11c0 5.91 7.59 12.153 19.07 10.94 15.336-1.624 23.027-13.383 25.053-20.455 10.494 13.16 25.388 16.99 25.388 16.99z" fill-rule="evenodd" fill="#fff"></path><path d="M430.213 178.13v29.635c0 17.536-14.216 40.67-31.75 40.67h-6.03c-17.536 0-31.75-23.134-31.75-40.67l.016-37.11c0 5.91 7.59 12.153 19.07 10.94 15.336-1.624 23.027-13.383 25.053-20.455 10.494 13.16 25.388 16.99 25.388 16.99zm-25.12 76.844c0 5-4.053 9.054-9.053 9.054h-1.865a9.053 9.053 0 0 1-9.055-9.054m-14.865 33.42v13.573m50.735-13.572v13.572" stroke="#1f7edd" stroke-width="2.381" stroke-linejoin="round" stroke-miterlimit="2" fill="none"></path><path d="M412.843 274.796l-7.75-3.202v-16.62l7.75 2.63v17.192zm-35.508 0l7.75-3.202v-16.62l-7.75 2.63v17.192z" stroke="#1f7edd" stroke-width="2.381" stroke-miterlimit="2" stroke-linecap="round" fill="none"></path><path d="M405.094 271.593l-11.2 7.842v22.53m-8.81-30.372l8.81 7.842" stroke="#1f7edd" stroke-width="2.381" stroke-miterlimit="2" stroke-linecap="round" fill="none"></path><path d="M413.634 203.747a2.684 2.684 0 0 1-5.37 0 2.686 2.686 0 0 1 5.37 0zm-29.558 0a2.686 2.686 0 1 1-5.37 0 2.686 2.686 0 0 1 5.37 0z" fill-rule="evenodd" fill="#1f7edd"></path><path d="M375.047 187.94h8.255m24.588 0h8.254" stroke="#1f7edd" stroke-width="2.381" stroke-miterlimit="2" stroke-linecap="round" fill="none"></path><path d="M389.345 231.05a11.704 11.704 0 0 0 6.102 1.704 11.71 11.71 0 0 0 6.103-1.704" stroke="#1f7edd" stroke-width="2.381" stroke-linejoin="round" stroke-miterlimit="2" stroke-linecap="round" fill="none"></path><path d="M399.498 215.48v3.882a4.052 4.052 0 0 1-8.103 0v-3.883" stroke="#1f7edd" stroke-width="2.381" stroke-miterlimit="2" fill="none"></path><path d="M391.934 203.747c0 5.945-4.818 10.763-10.762 10.763-5.944 0-10.763-4.818-10.763-10.763 0-5.943 4.816-10.762 10.76-10.762s10.762 4.82 10.762 10.762zm29.62 0c0 5.945-4.82 10.763-10.762 10.763-5.944 0-10.762-4.818-10.762-10.763 0-5.943 4.818-10.762 10.762-10.762 5.944 0 10.763 4.82 10.763 10.762zm.65 0h7.854m-69.048 0h9.182m21.913 0h7.925" stroke="#1f7edd" stroke-width="2.381" stroke-linejoin="round" stroke-miterlimit="2" fill="none"></path><path d="M102.78 184.222v-20.19c0-7.08-4.83-10.533-4.83-10.533s2.648-11.11-5.518-17.66c-9.52-7.637-17.257-1.67-17.257-1.67-4.316-4.494-11.048-10.79-22.39-9.748-9.93.914-20.468 7.267-20.468 18.808 0 .195.01 1.197.02 1.387l-.02-.806s-9.008 6.45-9.008 21.04v19.857m29.67 52.243v7.018c-24.84 0-27.068 22.71-27.068 35.996v22.002h74.545v-22.002c0-13.512-2.508-36.195-27.627-36.195v-6.82" stroke="#1f7edd" stroke-width="2.381" stroke-linejoin="round" stroke-miterlimit="2" fill-rule="evenodd" fill="#fff"></path><path d="M97.95 183.412a9.658 9.658 0 0 1 9.66 9.66c0 5.334-4.325 9.66-9.66 9.66m-69.812-.002c-5.335 0-9.66-4.323-9.66-9.658 0-5.335 4.325-9.66 9.66-9.66" stroke="#1f7edd" stroke-width="2.381" stroke-linejoin="round" stroke-miterlimit="2" fill-rule="evenodd" fill="#fff"></path><path d="M97.95 167.454v40.312c0 12.554-12.264 29.994-31.75 29.994h-6.03c-17.536 0-31.752-12.46-31.752-29.994l.018-47.79c0 5.914 7.59 12.156 19.073 10.942 15.332-1.623 23.024-13.383 25.05-20.454 10.494 13.16 25.39 16.99 25.39 16.99z" fill-rule="evenodd" fill="#fff"></path><path d="M97.95 167.454v40.312c0 12.554-12.264 29.994-31.75 29.994h-6.03c-17.536 0-31.752-12.46-31.752-29.994l.018-47.79c0 5.914 7.59 12.156 19.073 10.942 15.332-1.623 23.024-13.383 25.05-20.454 10.494 13.16 25.39 16.99 25.39 16.99z" stroke="#1f7edd" stroke-width="2.381" stroke-linejoin="round" stroke-miterlimit="2" fill="none"></path><path d="M83.99 193.07a3.656 3.656 0 1 1-7.312.002 3.656 3.656 0 0 1 7.313 0zm-33.924 0a3.656 3.656 0 1 1-7.308 0 3.656 3.656 0 0 1 7.308 0z" fill-rule="evenodd" fill="#1f7edd"></path><path d="M42.783 182.6h8.256m24.586 0h8.256m-29.148 47.872v5.196m8.11-5.196v5.196m8.11-5.196v5.196" stroke="#1f7edd" stroke-width="2.381" stroke-miterlimit="2" stroke-linecap="round" fill="none"></path><path d="M72.83 244.297a9.054 9.054 0 0 1-9.054 9.055H61.91c-5 0-9.054-4.053-9.054-9.055" stroke="#1f7edd" stroke-width="2.381" stroke-linejoin="round" stroke-miterlimit="2" fill="none"></path><path d="M77.068 245.62c0 7.123-5.774 12.896-12.896 12.896h-2.657c-7.122 0-12.896-5.773-12.896-12.896m-10.63 32.1v24.247m50.738-24.247v24.247M58.845 209.32h7.467v-17.88m-3.128 67.076v43.45" stroke="#1f7edd" stroke-width="2.381" stroke-linejoin="round" stroke-miterlimit="2" fill="none"></path><path d="M57.082 218.37a11.716 11.716 0 0 0 6.102 1.706 11.72 11.72 0 0 0 6.103-1.705" stroke="#1f7edd" stroke-width="2.381" stroke-linejoin="round" stroke-miterlimit="2" stroke-linecap="round" fill="none"></path><g class="animated vpc-svg fade-in-66" data-vp-add-class="fade-in-66"><path d="M172.716 127.454a8.473 8.473 0 0 1 0 16.945m-61.226 0a8.474 8.474 0 0 1 0-16.946" stroke="#1f7edd" stroke-width="2.088" stroke-miterlimit="2" fill-rule="evenodd" fill="#fff"></path><path d="M133.276 174.41v6.154c-9.68 3.485-23.74 10.555-23.74 22.207v19.3h65.38v-19.3c0-11.85-14.543-18.956-24.23-22.38v-5.98" stroke="#1f7edd" stroke-width="2.088" stroke-linejoin="round" stroke-miterlimit="2" fill-rule="evenodd" fill="#fff"></path><path d="M150.686 180.854a7.94 7.94 0 0 1-7.94 7.94h-1.638a7.94 7.94 0 0 1-7.94-7.94m-13.038 29.313v11.902m44.498-11.903v11.902" stroke="#1f7edd" stroke-width="2.088" stroke-linejoin="round" stroke-miterlimit="2" fill="none"></path><path d="M150.686 180.854l6.795 2.307" stroke="#1f7edd" stroke-width="2.088" stroke-miterlimit="2" stroke-linecap="round" fill="none"></path><path d="M172.716 98.477v42.846c0 15.38-12.467 33.798-27.846 33.798h-5.29c-15.378 0-27.846-18.415-27.846-33.795l.015-33.486" stroke="#1f7edd" stroke-width="2.088" stroke-linejoin="round" stroke-miterlimit="2" fill-rule="evenodd" fill="#fff"></path><path d="M160.985 135.926a3.362 3.362 0 1 1-6.724.002 3.362 3.362 0 0 1 6.727-.002zm-29.525 0a3.362 3.362 0 1 1-6.725.002 3.362 3.362 0 0 1 6.724-.002z" fill-rule="evenodd" fill="#1f7edd"></path><path d="M124.333 123.934h7.24m21.565 0h7.24" stroke="#1f7edd" stroke-width="2.088" stroke-miterlimit="2" stroke-linecap="round" fill="none"></path><path d="M146.817 144.83v4.24a2.807 2.807 0 0 1-2.807 2.806h-3.742a2.806 2.806 0 0 1-2.806-2.807v-4.24" stroke="#1f7edd" stroke-width="2.066" stroke-linejoin="round" stroke-miterlimit="2" fill="none"></path><path d="M137.174 160.992a10.278 10.278 0 0 0 5.352 1.495c1.96 0 3.792-.547 5.353-1.495" stroke="#1f7edd" stroke-width="2.088" stroke-linejoin="round" stroke-miterlimit="2" stroke-linecap="round" fill="none"></path><path d="M119.476 151.034a1.008 1.008 0 1 1-2.015 0 1.008 1.008 0 0 1 2.018 0zm5.866 6.088a1.008 1.008 0 1 1-2.015 0 1.008 1.008 0 0 1 2.015 0zm5.405-6.088a1.008 1.008 0 1 1-2.015 0 1.008 1.008 0 0 1 2.015 0zm25.003 0a1.008 1.008 0 1 1-2.014 0 1.008 1.008 0 0 1 2.015 0zm5.867 6.088a1.008 1.008 0 1 1-2.015 0 1.008 1.008 0 0 1 2.015 0zm5.405-6.088a1.008 1.008 0 1 1-2.015 0 1.008 1.008 0 0 1 2.015 0z" fill-rule="evenodd" fill="#1f7edd"></path><path d="M125.424 74.274c36.193 0 47.735-10.094 47.735-10.094l-3.75 16.238 17.45 5.71-7.484 4.99-4.99 3.752c-7.485 16.83-22.186 20.573-35.556 20.573-11.54 0-33.68-2.92-33.68-21.51 0-15.716 15.645-19.66 20.273-19.66z" fill-rule="evenodd" fill="#fff"></path><path d="M125.424 74.274c36.193 0 47.735-10.094 47.735-10.094l-3.75 16.238 17.45 5.71-7.484 4.99-4.99 3.752c-7.485 16.83-22.186 20.573-35.556 20.573-11.54 0-33.68-2.92-33.68-21.51 0-15.716 15.645-19.66 20.273-19.66z" stroke="#1f7edd" stroke-width="2.088" stroke-linejoin="round" stroke-miterlimit="2" fill="none"></path></g><path d="M272.517 293.254c4.743 1.632 9.08 1.625 12.018-.61 4.615-3.515-10.482-15.5-9.422-21.203 10.836-3.294 18.375-19.795 18.375-36.286 0-18.846-15.077-45.384-15.077-56.083 0-20.26-5.89-60.307-49-60.307-39.102 0-49.47 31.028-49.47 53.24 0 11.417-15.073 44.304-15.073 62.207 0 17.43 10.836 34.403 20.258 36.76.852 5.945-15.092 17.967-10.365 21.672 2.52 1.974 6.164 2.343 10.236 1.43" stroke="#1f7edd" stroke-width="2.799" stroke-linejoin="round" stroke-miterlimit="2" fill-rule="evenodd" fill="#fff"></path><path d="M217.308 250.137v8.162c-12.834 4.62-31.478 13.992-31.478 29.442v25.588h86.69v-25.587c0-15.713-19.282-25.14-32.126-29.676v-7.93" stroke="#1f7edd" stroke-width="2.799" stroke-linejoin="round" stroke-miterlimit="2" fill-rule="evenodd" fill="#fff"></path><path d="M269.605 169.32v34.462c0 20.392-16.532 47.298-36.925 47.298h-7.01c-20.393 0-36.925-26.906-36.925-47.298l.02-48.816" stroke="#1f7edd" stroke-width="2.799" stroke-linejoin="round" stroke-miterlimit="2" fill-rule="evenodd" fill="#fff"></path><path d="M251.567 199.11a3.123 3.123 0 1 1-6.245 0 3.123 3.123 0 0 1 6.245 0zm-38.1 0a3.123 3.123 0 1 1-6.245 0 3.123 3.123 0 0 1 6.246 0z" fill-rule="evenodd" fill="#1f7edd"></path><path d="M205.45 186.933h9.6m28.595 0h9.6" stroke="#1f7edd" stroke-width="2.769" stroke-miterlimit="2" stroke-linecap="round" fill="none"></path><path d="M222.078 230.86a13.624 13.624 0 0 0 7.097 1.983c2.6 0 5.028-.725 7.097-1.982" stroke="#1f7edd" stroke-width="2.769" stroke-linejoin="round" stroke-miterlimit="2" stroke-linecap="round" fill="none"></path><path d="M233.887 207.854v9.415a4.712 4.712 0 0 1-9.424 0v-9.418" stroke="#1f7edd" stroke-width="2.769" stroke-miterlimit="2" fill="none"></path><path d="M240.394 258.682c0 5.815-4.714 10.53-10.53 10.53h-2.17c-5.814 0-10.528-4.715-10.528-10.53m-17.286 8.69v45.96m59-45.96v45.96m-70.115-158.367c2.684 7.645 16.686 19.107 36.006 19.107 24.637 0 44.88-24.29 44.837-4.754" stroke="#1f7edd" stroke-width="2.769" stroke-linejoin="round" stroke-miterlimit="2" fill="none"></path><path d="M205.536 197.257h4.81m38.817 0h4.81" stroke="#1f7edd" stroke-width="2.769" stroke-miterlimit="2" stroke-linecap="round" fill="none"></path></svg>