<?xml version="1.0" encoding="UTF-8" standalone="no"?>
<svg width="40px" height="28px" viewBox="0 0 40 28" version="1.1" xmlns="http://www.w3.org/2000/svg" xmlns:xlink="http://www.w3.org/1999/xlink">
    <!-- Generator: Sketch 3.8.3 (29802) - http://www.bohemiancoding.com/sketch -->
    <title>Shape</title>
    <desc>Created with Sketch.</desc>
    <defs></defs>
    <g id="Page-1" stroke="none" stroke-width="1" fill="none" fill-rule="evenodd">
        <g id="Desktop-HD-Copy-12" transform="translate(-597.000000, -3252.000000)" fill="#FFFFFF">
            <g id="we-grow-with-you" transform="translate(0.000000, 2960.000000)">
                <g id="features" transform="translate(180.000000, 290.000000)">
                    <g id="row1">
                        <g id="Group-15" transform="translate(417.000000, 0.000000)">
                            <path d="M39.8941175,22.5168149 C40.0020894,19.109032 37.6202547,16.1778741 34.329047,15.4680985 C34.2628013,8.03051113 28.1909941,2 20.7379208,2 L20.6368315,2 C14.5168456,2 9.12986434,6.13949701 7.54986096,11.9450308 C3.2598055,12.6388902 0,16.3899464 0,20.7991581 L0,21.0546773 C0,25.9869721 4.01302791,30 8.94575287,30 L32.7361386,30 C36.6837812,30 39.895408,26.7888034 39.895408,22.841591 L39.8941175,22.5168149 L39.8941175,22.5168149 Z M37.829746,22.841591 C37.829746,25.6497212 35.544699,27.9347682 32.7357085,27.9347682 L8.94575287,27.9347682 C5.15167996,27.9347682 2.06480159,24.84832 2.06480159,21.0546773 L2.06480159,20.7991581 C2.06480159,17.208124 4.87465241,14.1844802 8.46138483,13.9151956 L9.23310442,13.8575533 L9.39398688,13.1004594 C10.5236054,7.78058411 15.1466101,4.06523175 20.6368315,4.06523175 L20.7383509,4.06523175 C27.0940683,4.06523175 32.2651058,9.23583906 32.2651058,15.5915564 L32.2651058,17.3105038 L33.2149145,17.3870735 C35.8862516,17.602157 37.9136286,19.8269807 37.8301762,22.4845524 L37.8301762,22.841591 L37.829746,22.841591 Z M15.6335592,17.684749 L16.9610545,16.3576839 C17.3180931,16.0006453 17.0630041,15.4388472 16.6035857,15.4388472 L15.7866986,15.4388472 C16.3480666,13.6519334 17.9818408,12.375628 19.921894,12.375628 C21.2489591,12.375628 22.4237452,12.9881858 23.2402022,13.9582123 C23.2402022,13.9582123 23.7508104,14.62196 24.6188874,14.0601619 C25.2314452,13.6519334 25.1286353,13.1417554 25.0271159,12.8862362 C25.0271159,12.7838564 24.8735463,12.5799573 24.8223564,12.5287674 C23.6484307,11.1505124 21.9122767,10.2824354 19.9722235,10.2824354 C16.9090043,10.2824354 14.3056337,12.4775775 13.6926457,15.4388472 L13.0800879,15.4388472 C12.6206695,15.4388472 12.3655805,16.0002151 12.5699098,16.3576839 L14.4080134,18.1953573 C14.4587731,18.2465471 14.509963,18.2465471 14.5607227,18.297737 C14.6123427,18.3480666 14.7142923,18.3480666 14.765052,18.3480666 C14.8670016,18.3480666 15.0205712,18.297737 15.1225208,18.1953573 L15.6335592,17.684749 L15.6335592,17.684749 Z M25.6392435,15.5915564 C25.5377241,15.4896069 25.4349142,15.4388472 25.2822049,15.4388472 C25.1802553,15.4388472 25.0266857,15.4896069 24.924306,15.5915564 L24.3117482,16.2045444 L23.1378224,17.3789003 C22.7807838,17.7359389 23.0358729,18.2981672 23.4952912,18.2981672 L24.0058994,18.2981672 C23.3421518,19.8803214 21.8103271,21.0034874 19.9730838,21.0034874 C18.7987279,21.0034874 17.6755619,20.5440691 16.9098647,19.7271819 C16.9098647,19.7271819 16.3992564,19.1146241 15.5311794,19.6759921 C14.9702417,20.033891 14.9702417,20.492449 15.0721912,20.7479682 C15.1229509,20.9006775 15.2765206,21.1058672 15.3272803,21.1561967 C16.5016362,22.3821727 18.1354104,23.1474397 19.9730838,23.1474397 C22.9851131,23.1474397 25.4869644,21.0546773 26.2014718,18.2981672 L27.1203085,18.2981672 C27.5792967,18.2981672 27.835246,17.7359389 27.4777773,17.4292298 L25.6392435,15.5915564 L25.6392435,15.5915564 Z" id="Shape"></path>
                        </g>
                    </g>
                </g>
            </g>
        </g>
    </g>
</svg>