<?xml version="1.0" encoding="UTF-8" standalone="no"?>
<svg width="32px" height="32px" viewBox="0 0 32 32" version="1.1" xmlns="http://www.w3.org/2000/svg" xmlns:xlink="http://www.w3.org/1999/xlink">
    <!-- Generator: Sketch 3.8.3 (29802) - http://www.bohemiancoding.com/sketch -->
    <title>Group 11</title>
    <desc>Created with Sketch.</desc>
    <defs></defs>
    <g id="Page-1" stroke="none" stroke-width="1" fill="none" fill-rule="evenodd">
        <g id="Desktop-HD-Copy-12" transform="translate(-602.000000, -3404.000000)" fill="#FFFFFF">
            <g id="we-grow-with-you" transform="translate(0.000000, 2960.000000)">
                <g id="features" transform="translate(180.000000, 290.000000)">
                    <g id="row1">
                        <g id="Group-18" transform="translate(422.000000, 148.000000)">
                            <g id="Group-11" transform="translate(0.000000, 6.000000)">
                                <path d="M12.79968,0 L19.19968,0 C19.78784,0 20.2672,0.47744 20.2672,1.06592 L20.2672,7.46624 C20.2672,8.0544 19.78784,8.53216 19.19968,8.53216 L12.79968,8.53216 C12.21024,8.53216 11.73312,8.05472 11.73312,7.46624 L11.73312,1.06592 C11.73312,0.47744 12.20992,0 12.79968,0 L12.79968,0 Z" id="Shape"></path>
                                <path d="M24.53248,0 L30.93376,0 C31.52192,0 31.99872,0.47744 31.99872,1.06592 L31.99872,7.46624 C31.99872,8.0544 31.52192,8.53216 30.93376,8.53216 L24.53248,8.53216 C23.94432,8.53216 23.46496,8.05472 23.46496,7.46624 L23.46496,1.06592 C23.46496,0.47744 23.94432,0 24.53248,0 L24.53248,0 Z" id="Shape"></path>
                                <path d="M1.06752,0 L7.46624,0 C8.05568,0 8.53376,0.47744 8.53376,1.06592 L8.53376,7.46624 C8.53376,8.0544 8.05568,8.53216 7.46624,8.53216 L1.06752,8.53216 C0.4768,8.53216 0,8.0544 0,7.46624 L0,1.06592 C0,0.47744 0.4768,0 1.06752,0 L1.06752,0 Z" id="Shape"></path>
                                <path d="M12.79968,11.73184 L19.19968,11.73184 C19.78784,11.73184 20.2672,12.20896 20.2672,12.79872 L20.2672,19.19872 C20.2672,19.78752 19.78784,20.26464 19.19968,20.26464 L12.79968,20.26464 C12.21024,20.26464 11.73312,19.78752 11.73312,19.19872 L11.73312,12.79872 C11.73312,12.20896 12.20992,11.73184 12.79968,11.73184 L12.79968,11.73184 Z" id="Shape"></path>
                                <path d="M24.53248,11.73184 L30.93376,11.73184 C31.52192,11.73184 31.99872,12.20896 31.99872,12.79872 L31.99872,19.19872 C31.99872,19.78752 31.52192,20.26464 30.93376,20.26464 L24.53248,20.26464 C23.94432,20.26464 23.46496,19.78752 23.46496,19.19872 L23.46496,12.79872 C23.46496,12.20896 23.94432,11.73184 24.53248,11.73184 L24.53248,11.73184 Z" id="Shape"></path>
                                <path d="M1.06752,11.73184 L7.46624,11.73184 C8.05568,11.73184 8.53376,12.20896 8.53376,12.79872 L8.53376,19.19872 C8.53376,19.78752 8.05568,20.26464 7.46624,20.26464 L1.06752,20.26464 C0.4768,20.26464 0,19.78752 0,19.19872 L0,12.79872 C0,12.20896 0.4768,11.73184 1.06752,11.73184 L1.06752,11.73184 Z" id="Shape"></path>
                                <path d="M12.79968,23.46624 L19.19968,23.46624 C19.78784,23.46624 20.2672,23.94304 20.2672,24.53152 L20.2672,30.93248 C20.2672,31.52192 19.78784,32 19.19968,32 L12.79968,32 C12.21024,32 11.73312,31.52192 11.73312,30.93248 L11.73312,24.53152 C11.73312,23.94304 12.20992,23.46624 12.79968,23.46624 L12.79968,23.46624 Z" id="Shape"></path>
                                <path d="M24.53248,23.46624 L30.93376,23.46624 C31.52192,23.46624 31.99872,23.94304 31.99872,24.53152 L31.99872,30.93248 C31.99872,31.52192 31.52192,32 30.93376,32 L24.53248,32 C23.94432,32 23.46496,31.52192 23.46496,30.93248 L23.46496,24.53152 C23.46496,23.94304 23.94432,23.46624 24.53248,23.46624 L24.53248,23.46624 Z" id="Shape"></path>
                                <path d="M1.06752,23.46624 L7.46624,23.46624 C8.05568,23.46624 8.53376,23.94304 8.53376,24.53152 L8.53376,30.93248 C8.53376,31.52192 8.05568,32 7.46624,32 L1.06752,32 C0.4768,32 0,31.52192 0,30.93248 L0,24.53152 C0,23.94304 0.4768,23.46624 1.06752,23.46624 L1.06752,23.46624 Z" id="Shape"></path>
                            </g>
                        </g>
                    </g>
                </g>
            </g>
        </g>
    </g>
</svg>