<?xml version="1.0" encoding="UTF-8" standalone="no"?>
<svg width="92px" height="92px" viewBox="0 0 92 92" version="1.1" xmlns="http://www.w3.org/2000/svg" xmlns:xlink="http://www.w3.org/1999/xlink">
    <!-- Generator: Sketch 3.8.3 (29802) - http://www.bohemiancoding.com/sketch -->
    <title>question icon</title>
    <desc>Created with Sketch.</desc>
    <defs></defs>
    <g id="Page-1" stroke="none" stroke-width="1" fill="none" fill-rule="evenodd">
        <g id="Desktop-HD-Copy-12" transform="translate(-674.000000, -1701.000000)">
            <g id="pipeline" transform="translate(27.000000, 1105.000000)">
                <g id="icons" transform="translate(648.000000, 13.000000)">
                    <g id="question-icon" transform="translate(0.000000, 584.000000)">
                        <circle id="Oval-111-Copy" stroke="#394B59" fill="#F5F5F5" cx="45" cy="45" r="45"></circle>
                        <path d="M25.7049577,30.5006469 C23.6292353,30.5006469 21.957035,32.1780162 21.957035,34.220228 L21.957035,48.1877401 C21.957035,50.229305 23.6292353,51.8704488 25.7049577,51.8704488 L27.7996155,51.8704488 L30.0588163,54.1313073 C30.8671661,54.933443 32.2266043,54.933443 33.0356071,54.1313073 L35.3137434,51.8704488 L40.3473211,51.8704488 L40.3473211,56.885091 C40.3473211,58.9266559 42.0195214,60.5865594 44.0952438,60.5865594 L55.2469461,60.5865594 L57.5440179,62.8474178 C58.3523678,63.6495535 59.6928704,63.6495535 60.5012203,62.8474178 L62.7982921,60.5865594 L64.8563848,60.5865594 C66.9314542,60.5865594 68.62259,58.9273028 68.62259,56.885091 L68.62259,42.9356916 C68.62259,40.8934799 66.9314542,39.2161105 64.8563848,39.2161105 L50.230998,39.2161105 L50.230998,34.2195811 C50.230998,32.1773694 48.5411681,30.5 46.4647928,30.5 L25.7049577,30.5 L25.7049577,30.5006469 L25.7049577,30.5006469 Z M25.7049577,31.5395421 L46.4654457,31.5395421 C47.9907327,31.5395421 49.2032575,32.7246329 49.2032575,34.220228 L49.2032575,48.1877401 C49.2032575,49.6645755 47.9907327,50.8496664 46.4654457,50.8496664 L35.0930469,50.8496664 C34.9644161,50.8496664 34.8357853,50.9040046 34.7437196,50.9958621 L32.3003874,53.3841566 C31.87793,53.8033372 31.2164934,53.8033372 30.8123185,53.3841566 L28.3500508,50.9958621 C28.2579851,50.9040046 28.1300073,50.8496664 28.0007235,50.8496664 L25.7043047,50.8496664 C24.1796707,50.8496664 22.9854284,49.6645755 22.9854284,48.1877401 L22.9854284,34.220228 C22.9860813,32.7246329 24.1803236,31.5395421 25.7049577,31.5395421 L25.7049577,31.5395421 L25.7049577,31.5395421 Z M26.8436993,35.788274 C26.5864377,35.8063867 26.3474587,36.0800185 26.3846767,36.3355376 C26.4029593,36.6091694 26.6785034,36.827816 26.9540476,36.8097033 L45.2339854,36.8097033 C45.5095296,36.8097033 45.7667912,36.572297 45.7667912,36.2986652 C45.7667912,36.0250334 45.5088766,35.7701612 45.2339854,35.788274 L26.9540476,35.788274 L26.8991999,35.788274 C26.8809174,35.788274 26.8626348,35.788274 26.8436993,35.788274 L26.8436993,35.788274 L26.8436993,35.788274 Z M50.230998,40.2556526 L64.8557318,40.2556526 C66.3797129,40.2556526 67.5922378,41.4588562 67.5922378,42.9363385 L67.5922378,56.885091 C67.5922378,58.3619264 66.3797129,59.5470173 64.8557318,59.5470173 L62.5769426,59.5470173 C62.4300293,59.5470173 62.3013985,59.6013556 62.2093328,59.7113258 L59.7660006,62.0996203 C59.3618257,62.5188009 58.6821066,62.5188009 58.2596491,62.0996203 L55.8339465,59.7113258 C55.7418808,59.6013556 55.5956204,59.5470173 55.4663367,59.5470173 L44.0952438,59.5470173 C42.5706097,59.5470173 41.3757145,58.3619264 41.3757145,56.885091 L41.3757145,51.8704488 L46.4647928,51.8704488 C48.5411681,51.8704488 50.230998,50.229305 50.230998,48.1877401 L50.230998,40.2556526 L50.230998,40.2556526 L50.230998,40.2556526 Z M26.8071342,40.6935928 C26.5315901,40.7298183 26.3108936,41.0034501 26.3474587,41.2770819 C26.4023063,41.5507137 26.6785034,41.7512476 26.9540476,41.7150221 L45.2339854,41.7150221 C45.5095296,41.7150221 45.7667912,41.4776158 45.7667912,41.203984 C45.7667912,40.9303523 45.5088766,40.6754801 45.2339854,40.6935928 L26.9540476,40.6935928 C26.9174825,40.6754801 26.8802644,40.6754801 26.8436993,40.6935928 L26.8071342,40.6935928 L26.8071342,40.6935928 L26.8071342,40.6935928 Z M51.6648723,44.5043845 C51.3893281,44.5224973 51.1686316,44.7961291 51.1869142,45.0697608 C51.2241322,45.3427458 51.4996764,45.5620393 51.7745676,45.5258138 L63.6066419,45.5258138 C63.8821861,45.5258138 64.1394477,45.2884075 64.1394477,45.0147757 C64.1394477,44.7411439 63.8815331,44.4862718 63.6066419,44.5043845 L51.7745676,44.5043845 L51.7020903,44.5043845 L51.6648723,44.5043845 L51.6648723,44.5043845 L51.6648723,44.5043845 Z M26.8071342,45.5801521 C26.5315901,45.6163775 26.3108936,45.8900093 26.3474587,46.1636411 C26.4023063,46.4372729 26.6785034,46.6378069 26.9540476,46.6015814 L45.2339854,46.6015814 C45.5095296,46.6015814 45.7667912,46.3641751 45.7667912,46.0905433 C45.7667912,45.8169115 45.5088766,45.5620393 45.2339854,45.5801521 L26.9540476,45.5801521 L26.8436993,45.5801521 L26.8071342,45.5801521 L26.8071342,45.5801521 L26.8071342,45.5801521 Z M51.8307211,49.3909437 C51.5728066,49.4084096 51.3344805,49.6820414 51.3703926,49.9556732 C51.3893281,50.2111922 51.6648723,50.4485985 51.9404164,50.4117262 L63.6066419,50.4117262 C63.8821861,50.4117262 64.1394477,50.1749667 64.1394477,49.901335 C64.1394477,49.6277032 63.8815331,49.372831 63.6066419,49.3909437 L51.9404164,49.3909437 L51.8855688,49.3909437 C51.8659803,49.3909437 51.8483507,49.3909437 51.8307211,49.3909437 L51.8307211,49.3909437 L51.8307211,49.3909437 Z M44.2793752,54.2956157 C44.0221136,54.3324881 43.80207,54.605473 43.8386351,54.8791048 C43.8752002,55.1527366 44.1507444,55.3526236 44.4262885,55.3163981 L63.6066419,55.3163981 C63.8821861,55.3163981 64.1394477,55.0796387 64.1394477,54.8060069 C64.1394477,54.5323751 63.8815331,54.277503 63.6066419,54.2956157 L44.4262885,54.2956157 L44.3342228,54.2956157 L44.2793752,54.2956157 L44.2793752,54.2956157 L44.2793752,54.2956157 Z" id="Shape" fill="#394B59"></path>
                    </g>
                </g>
            </g>
        </g>
    </g>
</svg>