<?xml version="1.0" encoding="UTF-8" standalone="no"?>
<svg width="32px" height="32px" viewBox="0 0 32 32" version="1.1" xmlns="http://www.w3.org/2000/svg" xmlns:xlink="http://www.w3.org/1999/xlink">
    <!-- Generator: Sketch 3.8.3 (29802) - http://www.bohemiancoding.com/sketch -->
    <title>Shape</title>
    <desc>Created with Sketch.</desc>
    <defs></defs>
    <g id="Page-1" stroke="none" stroke-width="1" fill="none" fill-rule="evenodd">
        <g id="Desktop-HD-Copy-12" transform="translate(-180.000000, -3404.000000)" fill="#FFFFFF">
            <g id="we-grow-with-you" transform="translate(0.000000, 2960.000000)">
                <g id="features" transform="translate(180.000000, 290.000000)">
                    <g id="row1">
                        <g id="Group-19" transform="translate(0.000000, 148.000000)">
                            <path d="M31.2536564,6 L25.9447858,6 C25.7467763,6 25.5584595,6.07892688 25.417222,6.21877974 L9.93370836,21.699524 C7.21280832,21.1234963 4.36313284,21.9612289 2.4176547,23.9122458 C0.857118139,25.4727823 0,27.5442666 0,29.7459109 C0,31.9530939 0.857118139,34.0245781 2.4176547,35.5823453 C3.97265252,37.1428819 6.04690609,38 8.25131977,38 C10.4557334,38 12.5272177,37.1428819 14.0877542,35.5823453 C16.0401558,33.6327131 16.8681956,30.7871917 16.2977066,28.0662916 L21.7173518,22.6466465 L24.9464301,22.6466465 C25.3272177,22.6466465 25.6443098,22.3627867 25.6844656,21.9833838 L26.0652531,18.5493726 L29.03955,18.5493726 C29.4175682,18.5493726 29.7374297,18.2655128 29.7775855,17.8861099 L30.1943747,14.1668542 L31.7798356,12.5800087 C31.9183038,12.4387711 31.9958459,12.2532237 31.9958459,12.0524448 L31.9958459,6.74634357 C31.9972306,6.33509302 31.664907,6 31.2536564,6 L31.2536564,6 L31.2536564,6 Z M30.5073129,11.7450454 L28.9578538,13.3000433 C28.8387711,13.4191259 28.7626136,13.575595 28.7446127,13.7459109 L28.3762873,17.0594548 L25.504457,17.0594548 C25.3064474,17.0594548 25.0018174,17.2546949 24.8605799,17.3945478 C24.7414972,17.5136305 24.6653397,17.6700995 24.6473388,17.8376461 L24.2817828,21.155344 L21.4099524,21.155344 C21.2119429,21.155344 21.0236261,21.2342709 20.8823886,21.3741237 L14.9517958,27.3047166 C14.7648637,27.4916487 14.6900909,27.764431 14.759325,28.0192124 C15.3838165,30.3911726 14.7399394,32.8226742 13.0340113,34.525833 C10.475119,37.0819558 6.02475117,37.0819558 3.47139766,34.525833 C2.19472091,33.2491562 1.49130248,31.5543055 1.49130248,29.7445262 C1.49130248,27.9402856 2.19472091,26.2426655 3.47139766,24.9659887 C4.73145825,23.7059282 6.4138468,23.0108178 8.20977932,23.0108178 C8.80796192,23.0108178 9.39922112,23.0897447 9.97801816,23.240675 C10.2244916,23.3085245 10.505582,23.2351363 10.6952834,23.0482042 L26.2535699,7.48991779 L30.5073129,7.48991779 L30.5073129,11.7450454 L30.5073129,11.7450454 L30.5073129,11.7450454 Z M7.72514063,32.7603635 C7.06187796,33.4250108 5.90289918,33.4250108 5.23686715,32.7603635 C4.5500649,32.0735612 4.5500649,30.9588923 5.23686715,30.27209 C5.56919082,29.9425357 6.01367375,29.758373 6.48031157,29.758373 C6.94694938,29.758373 7.39420163,29.9425357 7.72375594,30.27209 C8.40917353,30.9588923 8.40917353,32.0735612 7.72514063,32.7603635 L7.72514063,32.7603635 L7.72514063,32.7603635 Z M4.18450885,29.2211164 C2.91890956,30.4867157 2.91890956,32.5498918 4.18450885,33.8154911 C4.79515362,34.4261359 5.61211597,34.7626136 6.48031157,34.7626136 C7.34850713,34.7626136 8.16546947,34.4275206 8.77888359,33.8154911 C10.0417135,32.5498918 10.0417135,30.4867157 8.77611424,29.2183471 C7.55205539,27.9956729 5.41549114,27.9901342 4.18450885,29.2211164 L4.18450885,29.2211164 L4.18450885,29.2211164 Z" id="Shape"></path>
                        </g>
                    </g>
                </g>
            </g>
        </g>
    </g>
</svg>