<?xml version="1.0" encoding="UTF-8" standalone="no"?>
<svg width="92px" height="92px" viewBox="0 0 92 92" version="1.1" xmlns="http://www.w3.org/2000/svg" xmlns:xlink="http://www.w3.org/1999/xlink">
    <!-- Generator: Sketch 3.8.3 (29802) - http://www.bohemiancoding.com/sketch -->
    <title>team icon-thin</title>
    <desc>Created with Sketch.</desc>
    <defs></defs>
    <g id="Page-1" stroke="none" stroke-width="1" fill="none" fill-rule="evenodd">
        <g id="Desktop-HD-Copy-12" transform="translate(-674.000000, -1117.000000)">
            <g id="pipeline" transform="translate(27.000000, 1105.000000)">
                <g id="icons" transform="translate(648.000000, 13.000000)">
                    <g id="team-icon-thin">
                        <circle id="Oval-111" stroke="#394B59" fill="#F5F5F5" cx="45" cy="45" r="45"></circle>
                        <path d="M50.4155891,48.2247191 C50.2486149,48.2247191 50.1077759,48.3072099 49.992346,48.4200921 L49.9763745,48.4034492 C49.9596771,48.4193685 48.2696087,50.0221503 45.5000163,50.0221503 C42.7304238,50.0221503 41.0403554,48.4193685 41.024384,48.4034492 L41.0084125,48.4200921 C40.8929826,48.3079335 40.7521435,48.2247191 40.5851694,48.2247191 C37.2965053,48.2247191 34.7105844,49.2826275 32.8978263,51.3695001 C29.0697632,55.7769693 30.0875793,63.1519366 30.1333157,63.4638098 C30.1776001,63.7713413 30.4425808,64 30.7547498,64 L60.2460087,64 C60.5581777,64 60.8231584,63.7713413 60.8674428,63.4638098 C60.9131792,63.1519366 61.9317213,55.7769693 58.1029322,51.3695001 C56.2901741,49.2819039 53.7042532,48.2247191 50.4155891,48.2247191 L50.4155891,48.2247191 Z M45.5007422,51.2739844 C46.8880794,51.2739844 48.0235033,50.9360616 48.8990285,50.5424213 L45.5007422,57.5592048 L42.102456,50.5424213 C42.9779811,50.9360616 44.1134051,51.2739844 45.5007422,51.2739844 L45.5007422,51.2739844 Z M59.6819266,62.7474423 L31.3195579,62.7474423 C31.1692812,61.0180298 30.9551187,55.5157484 33.8517567,52.1857249 C35.3436341,50.4700609 37.475821,49.5619385 40.1945952,49.4823421 L44.9352082,59.2712508 C45.1450148,59.7039657 45.8564697,59.7039657 46.0662763,59.2712508 L50.8068893,49.4823421 C53.5256635,49.5612148 55.6585763,50.4700609 57.1497278,52.1857249 C60.0470917,55.5157484 59.8322033,61.0173062 59.6819266,62.7474423 L59.6819266,62.7474423 Z M45.5007422,46.1110731 C50.0925304,46.1110731 53.8283948,42.3874093 53.8283948,37.8106169 C53.8283948,33.2338244 50.0925304,29.509437 45.5007422,29.509437 C40.908954,29.509437 37.1730896,33.2338244 37.1730896,37.8106169 C37.1730896,42.3874093 40.908228,46.1110731 45.5007422,46.1110731 L45.5007422,46.1110731 Z M45.5007422,30.7619947 C49.3999508,30.7619947 52.5724591,33.9241422 52.5724591,37.8106169 C52.5724591,41.6970915 49.4006768,44.8585154 45.5007422,44.8585154 C41.6015336,44.8585154 38.4297514,41.6970915 38.4297514,37.8106169 C38.4290254,33.9241422 41.6008076,30.7619947 45.5007422,30.7619947 L45.5007422,30.7619947 Z M71.8935423,43.4966935 C70.5773507,41.9814677 68.7043367,41.2130007 66.3267705,41.2130007 C66.3173328,41.2130007 66.310073,41.2202368 66.3006354,41.2202368 C66.2077106,41.2238548 66.1191418,41.2520753 66.0349287,41.2962152 C66.0080677,41.3106872 65.9855625,41.3258829 65.9608793,41.343973 C65.9369222,41.3613395 65.9093352,41.3700227 65.8875559,41.3910072 C65.8766663,41.4011377 64.7296267,42.4822014 62.8551608,42.4822014 C60.9821468,42.4822014 59.8351072,41.4011377 59.8263955,41.3924544 C59.8038903,41.3700227 59.7748513,41.3606159 59.7501682,41.3432494 C59.726211,41.3258829 59.7051578,41.3114108 59.6790227,41.2976624 C59.5882759,41.2491809 59.4924473,41.2166188 59.3922628,41.2151716 C59.3893589,41.2151716 59.3879069,41.2130007 59.385003,41.2130007 L59.3820991,41.2130007 C59.3791952,41.2130007 59.3770173,41.2130007 59.3748394,41.2137243 C55.781992,41.2173424 53.3260205,42.9995779 52.2733576,46.368676 C52.1702692,46.6986392 52.3553927,47.0495869 52.6864371,47.1523386 C53.0160294,47.2543667 53.368853,47.071295 53.4726674,46.7406082 C54.3198795,44.0278185 56.1769221,42.5936363 58.9944288,42.4735181 L62.2889007,49.2768387 C62.393441,49.4931961 62.6134113,49.6306808 62.8544348,49.6306808 C63.0954583,49.6306808 63.3154286,49.4931961 63.4199689,49.2768387 L66.7151668,42.4735181 C68.5235691,42.5502201 69.942849,43.1689011 70.938886,44.3129183 C72.8540065,46.5141203 72.7959285,50.1126008 72.69647,51.466463 L61.628264,51.466463 C61.2812482,51.466463 61.0002961,51.7464976 61.0002961,52.0923801 C61.0002961,52.4382625 61.2812482,52.7182971 61.628264,52.7182971 L73.2678119,52.7182971 C73.5799809,52.7182971 73.8449616,52.4896384 73.889246,52.1813833 C73.9211889,51.9585134 74.6515191,46.6711423 71.8935423,43.4966935 L71.8935423,43.4966935 Z M62.8558867,47.5640691 L60.8282402,43.3765753 C61.3952262,43.5791843 62.0682045,43.7340355 62.8558867,43.7340355 C63.644295,43.7340355 64.3172733,43.5791843 64.8842593,43.3765753 L62.8558867,47.5640691 L62.8558867,47.5640691 Z M62.8558867,40.0885208 C66.1997249,40.0885208 68.9199511,37.3771783 68.9199511,34.0442604 C68.9199511,30.7113425 66.1997249,28 62.8558867,28 C59.5120486,28 56.7918224,30.7113425 56.7918224,34.0442604 C56.7918224,37.3771783 59.5127745,40.0885208 62.8558867,40.0885208 L62.8558867,40.0885208 Z M62.8558867,29.2518341 C65.5071453,29.2518341 67.6640153,31.4016603 67.6640153,34.0442604 C67.6640153,36.6868606 65.5071453,38.8366867 62.8558867,38.8366867 C60.2046282,38.8366867 58.0477582,36.6868606 58.0477582,34.0442604 C58.0484841,31.4016603 60.2053541,29.2518341 62.8558867,29.2518341 L62.8558867,29.2518341 Z M29.3732205,51.466463 L18.3021105,51.466463 C18.2012001,50.1154952 18.1402182,46.5235272 20.0567907,44.3165364 C21.0535536,43.1696247 22.4742855,42.5502201 24.2841398,42.4727945 L27.5793377,49.2761151 C27.7891443,49.70883 28.5005992,49.70883 28.7104058,49.2761151 L32.0048777,42.4727945 C34.8223845,42.5929127 36.679427,44.0270949 37.5266392,46.7398846 C37.6304535,47.0698478 37.9803732,47.2550903 38.3128695,47.151615 C38.6439138,47.0488633 38.8290373,46.6979156 38.7259489,46.3679524 C37.6718341,42.9952363 35.2129587,41.2122771 31.6143035,41.2122771 C31.6048658,41.2122771 31.5976061,41.2195132 31.5888944,41.2195132 C31.4959697,41.2231312 31.4074008,41.2513517 31.3231878,41.2954915 C31.2963267,41.3099636 31.2738215,41.3244357 31.2491384,41.3432494 C31.2251812,41.3606159 31.1975942,41.3692991 31.175815,41.3902836 C31.1649253,41.4004141 30.0178858,42.4814778 28.1441458,42.4814778 C26.2725837,42.4814778 25.1262701,41.4033085 25.1117506,41.3902836 C25.0899714,41.3692991 25.0616584,41.3598923 25.0377012,41.3425258 C25.0137441,41.3251593 24.9919648,41.3106872 24.9658298,41.2962152 C24.8758089,41.2477337 24.7814323,41.2166188 24.6819738,41.214448 C24.6783439,41.214448 24.676166,41.2115535 24.6725361,41.2115535 L24.6681802,41.2115535 L24.6616465,41.2115535 C22.2891621,41.2137243 20.4197779,41.9821913 19.1057642,43.4945227 C16.3485134,46.6689715 17.0788436,51.9563426 17.1107865,52.1799361 C17.155071,52.4874676 17.4200516,52.7161263 17.7322206,52.7161263 L29.3717685,52.7161263 C29.7187843,52.7161263 29.9997364,52.4360917 29.9997364,52.0902092 C30.0019143,51.745774 29.7209622,51.466463 29.3732205,51.466463 L29.3732205,51.466463 Z M28.1448717,43.7340355 C28.93328,43.7340355 29.6062583,43.5791843 30.1725183,43.3765753 L28.1448717,47.5640691 L26.1164992,43.3765753 C26.6834852,43.5791843 27.3564635,43.7340355 28.1448717,43.7340355 L28.1448717,43.7340355 Z M28.1448717,40.0885208 C31.4887099,40.0885208 34.2089361,37.3771783 34.2089361,34.0442604 C34.2089361,30.7113425 31.4887099,28 28.1448717,28 C24.8010336,28 22.0808074,30.7113425 22.0808074,34.0442604 C22.0808074,37.3771783 24.8010336,40.0885208 28.1448717,40.0885208 L28.1448717,40.0885208 Z M28.1448717,29.2518341 C30.7961303,29.2518341 32.9530003,31.4016603 32.9530003,34.0442604 C32.9530003,36.6868606 30.7961303,38.8366867 28.1448717,38.8366867 C25.4936132,38.8366867 23.3367432,36.6868606 23.3367432,34.0442604 C23.3367432,31.4016603 25.4936132,29.2518341 28.1448717,29.2518341 L28.1448717,29.2518341 Z" id="Shape" fill="#394B59"></path>
                    </g>
                </g>
            </g>
        </g>
    </g>
</svg>