<?xml version="1.0" encoding="UTF-8" standalone="no"?>
<svg width="90px" height="76px" viewBox="0 0 90 76" version="1.1" xmlns="http://www.w3.org/2000/svg" xmlns:xlink="http://www.w3.org/1999/xlink">
    <!-- Generator: Sketch 3.7 (28169) - http://www.bohemiancoding.com/sketch -->
    <title>Shape</title>
    <desc>Created with Sketch.</desc>
    <defs></defs>
    <g id="Page-1" stroke="none" stroke-width="1" fill="none" fill-rule="evenodd">
        <g id="noun_137341_cc" fill="#000000">
            <g id="Group">
                <path d="M90,2.296 L24.416,67.881 L24.416,62.285 L86.639,0.062 L78.862,0.062 L24.416,54.506 L24.416,48.91 L73.265,0.062 L65.486,0.062 L44.812,20.734 L24.14,0.062 L16.361,0.062 L40.923,24.625 L38.124,27.423 L10.764,0.062 L2.986,0.062 L34.236,31.312 L31.438,34.11 L0,2.673 L0,10.369 L0,10.452 L0,75.937 L5.5,75.937 L5.5,15.953 L9.458,19.91 L9.458,75.937 L14.958,75.937 L14.958,25.412 L18.916,29.369 L18.916,75.937 L21.666,75.937 L24.141,75.937 L24.417,75.937 L24.417,75.66 L44.813,55.265 L65.487,75.937 L65.586,75.937 L67.127,75.937 L71.086,75.937 L71.086,28.994 L75.044,25.035 L75.044,75.937 L80.544,75.937 L80.544,19.535 L84.502,15.577 L84.502,75.937 L90,75.937 L90,10.369 L89.709,10.369 L90,10.078 L90,2.296 L90,2.296 Z M27.546,38 L24.416,41.131 L24.416,34.869 L27.546,38 L27.546,38 Z M58.188,41.891 L65.584,49.287 L65.584,54.885 L55.389,44.688 L58.188,41.891 L58.188,41.891 Z M48.702,51.375 L51.5,48.576 L65.584,62.662 L65.584,68.258 L48.702,51.375 L48.702,51.375 Z M65.584,41.506 L62.078,37.999 L65.584,34.493 L65.584,41.506 L65.584,41.506 Z" id="Shape"></path>
            </g>
        </g>
    </g>
</svg>